<svg id="Layer_1" data-name="Layer 1" xmlns="http://www.w3.org/2000/svg" viewBox="0 0 1200 1200"><defs><style>.cls-1{fill:none;stroke:#000;stroke-miterlimit:10;}</style></defs><title>southeast</title><polyline class="cls-1" points="806.5 951.5 798.5 941.5 773.5 944.5 773.5 936.5 761.5 936.5 761.5 943.5 718.5 946.5 717.5 870.5 736.5 870.5 736.5 855.5 728.5 855.5 739.5 845.5 740.5 829.5 729.5 829.5 715.5 832.5 715.5 840.5 704.5 840.5 703.5 970.5 708.5 982.5 702.5 999.5 706.5 1004.5 714.5 1004.5 716.5 1009.5 705.5 1009.5 705.5 1024.5 693.5 1025.5 692.5 1048.5 689.5 1056.5 678.5 1053.5 675.5 1063.5 691.5 1072.5 694.5 1078.5 720.5 1085.5 724.5 1092.5 739.5 1084.5 761.5 1094.5 805.5 1076.5 783.5 1010.5 794.5 1007.5 787.5 997.5 820.5 969.5 812.5 959.5"/><polygon points="729.5 691.5 729.5 829.5 740.5 829.5 740.5 752.5 777.5 750.5 777.5 739.5 807.5 742.5 811.5 727.5 805.5 712.5 804.5 702.5 785.5 700.5 784.5 718.5 777.5 718.5 775.5 691.5 729.5 691.5"/><polygon class="cls-1" points="477.5 635.5 506.5 675.5 506.5 691.5 520.5 697.5 547.5 760.5 559.5 760.5 559.5 755.5 552.5 748.5 550.5 737.5 613.5 737.5 613.5 743.5 629.5 742.5 625.5 703.5 614.5 703.5 614.5 697.5 625.5 685.5 625.5 664.5 605.5 666.5 590.5 659.5 593.5 653.5 589.5 648.5 584.5 650.5 576.5 640.5 589.5 627.5 583.5 622.5 577.5 632.5 570.5 625.5 561.5 634.5 547.5 634.5 547.5 647.5 540.5 638.5 527.5 646.5 523.5 639.5 529.5 635.5 532.5 639.5 549.5 627.5 553.5 632.5 563.5 627.5 560.5 622.5 564.5 618.5 559.5 612.5 578.5 601.5 580.5 603.5 604.5 585.5 601.5 581.5 591.5 584.5 548.5 580.5 518.5 587.5 530.5 604.5 477.5 635.5"/><polygon class="cls-1" points="506.5 660.5 520.5 686.5 545.5 668.5 534.5 656.5 516.5 651.5 506.5 660.5"/><polygon class="cls-1" points="705.5 1033.5 712.5 1033.5 717.5 1029.5 722.5 1029.5 722.5 1040.5 705.5 1040.5 705.5 1033.5"/><polyline class="cls-1" points="806.5 951.5 813.5 932.5 808.5 903.5 812.5 894.5 820.5 927.5 819.5 937.5 812.5 960.5"/><polygon class="cls-1" points="648.5 647.5 648.5 658.5 671.5 658.5 674.5 680.5 683.5 680.5 683.5 675.5 695.5 675.5 695.5 714.5 700.5 714.5 700.5 728.5 706.5 728.5 706.5 720.5 711.5 720.5 711.5 714.5 714.5 714.5 714.5 693.5 729.5 691.5 775.5 691.5 773.5 668.5 743.5 670.5 741.5 624.5 695.5 624.5 695.5 637.5 668.5 637.5 668.5 647.5 648.5 647.5"/><polygon class="cls-1" points="610.5 597.5 616.5 595.5 618.5 585.5 623.5 583.5 629.5 574.5 639.5 577.5 692.5 572.5 750.5 572.5 750.5 585.5 742.5 606.5 741.5 624.5 695.5 624.5 695.5 637.5 673.77 637.5 676.5 627.5 670.5 617.5 661.5 621.5 649.5 621.5 643.5 633.5 641.5 615.5 631.5 621.5 631.5 606.5 625.5 605.5 621.5 613.5 620.5 600.5 614.5 600.5 610.5 597.5"/><polygon class="cls-1" points="817.5 605.5 794.5 605.5 798.5 647.5 772.5 647.5 772.5 668.5 743.5 670.5 741.5 624.5 741.5 605.5 750.5 585.5 750.5 572.5 767.5 582.5 779.5 568.5 781.5 572.5 786.5 567.5 796.5 576.5 811.5 577.5 817.5 605.5"/><polygon class="cls-1" points="858.5 609.5 857.5 533.5 893.5 533.5 898.5 512.5 898.5 484.5 904.5 476.5 875.5 476.5 876.5 454.5 867.5 454.5 857.5 467.5 847.5 470.5 834.5 491.5 812.5 504.5 815.5 522.5 809.5 555.5 811.5 577.5 817.5 604.5 858.5 609.5"/><polygon class="cls-1" points="812.5 504.5 798.5 524.5 779.5 512.5 785.5 530.5 754.5 558.5 750.5 572.5 767.5 582.5 779.5 567.5 781.5 572.5 786.5 567.5 796.5 576.5 812.5 577.5 809.5 555.5 815.5 522.5 812.5 504.5"/><polygon class="cls-1" points="716.5 486.5 744.5 486.5 755.5 504.5 779.5 512.5 785.5 530.5 754.5 558.5 750.5 572.5 737.37 572.5 738.5 509.5 716.5 509.5 716.5 486.5"/><polygon class="cls-1" points="686.5 499.5 691.5 515.5 686.5 532.5 694.5 533.5 686.5 546.5 696.5 552.5 694.59 572.5 737.5 572.5 738.5 509.5 716.5 509.5 716.5 499.5 686.5 499.5"/><polygon class="cls-1" points="614.5 580.5 629.5 574.5 639.5 577.5 694.5 572.5 696.5 552.5 686.5 546.5 694.5 533.5 686.5 531.5 691.5 515.5 686.5 499.5 673.5 499.5 673.5 493.5 660.5 493.5 659.5 489.5 649.5 489.5 648.5 495.5 630.5 490.5 626.5 495.5 622.5 488.5 618.5 489.5 616.5 498.5 625.5 500.5 625.5 505.5 619.5 504.5 617.5 509.5 599.5 509.5 599.5 516.5 617.5 520.5 622.5 529.5 617.5 538.5 614.5 580.5"/><polygon class="cls-1" points="328.5 512.5 366.5 520.5 366.5 556.5 371.5 566.5 384.5 572.5 398.5 572.5 434.5 588.5 445.5 577.5 445.5 567.5 451.5 565.5 465.5 550.5 477.5 563.5 487.5 557.5 518.5 588.5 548.5 580.5 591.5 584.5 601.5 580.5 604.5 585.5 614.5 580.5 617.5 538.5 617.5 529.5 610.5 530.5 610.5 540.5 578.5 540.5 578.5 546.5 563.5 517.5 558.5 512.5 557.5 499.5 551.5 499.5 551.5 489.5 557.5 489.5 557.5 481.5 570.5 481.5 572.5 484.5 575.5 470.5 581.5 470.5 581.5 480.5 587.5 484.5 585.5 458.5 589.5 458.5 589.5 454.5 599.5 452.5 599.5 441.5 591.5 441.5 580.5 428.5 571.5 426.5 568.5 431.5 549.5 423.5 532.5 427.5 517.5 421.5 510.5 427.5 496.5 426.5 491.5 431.5 486.5 430.5 480.5 424.5 457.5 427.5 455.5 422.5 451.5 429.5 448.5 423.5 429.5 429.5 412.5 424.5 396.5 431.5 389.5 431.5 387.5 427.5 382.5 431.5 373.5 424.5 328.5 512.5"/><polygon class="cls-1" points="564.5 452.5 564.5 465.5 576.5 465.5 574.5 458.5 564.5 452.5"/><polygon class="cls-1" points="500.5 524.5 498.5 535.5 510.5 551.5 518.5 556.5 524.5 553.5 524.5 545.5 526.5 543.5 516.5 526.5 510.5 526.5 516.5 534.5 511.5 539.5 500.5 524.5"/><polygon class="cls-1" points="716.5 465.5 705.5 465.5 705.5 418.5 703.5 391.5 682.5 391.5 689.5 385.5 699.5 388.5 705.5 377.5 716.5 381.5 723.5 381.5 727.5 385.5 738.5 383.5 747.5 389.5 765.5 428.5 776.5 443.5 780.5 439.5 779.5 435.5 801.5 431.5 800.5 419.5 809.5 418.5 812.5 397.5 830.5 401.5 849.5 391.5 850.5 395.5 868.5 395.5 868.5 401.5 874.5 407.5 866.5 411.5 866.5 421.5 873.5 430.5 876.5 430.5 876.5 435.5 885.5 431.5 891.5 433.5 881.5 451.5 876.5 454.5 867.5 454.5 857.5 467.5 847.5 470.5 834.5 491.5 812.5 504.5 798.5 524.5 779.5 512.5 755.5 504.5 744.5 486.5 716.5 486.5 716.5 465.5"/><polygon class="cls-1" points="597.5 474.5 591.5 479.5 593.5 486.5 604.5 486.5 606.5 482.5 611.5 484.5 628.5 474.5 636.5 477.5 636.5 480.5 660.5 481.5 659.5 489.5 660.5 493.5 673.5 493.5 673.5 499.5 716.5 499.5 716.5 465.5 705.5 465.5 705.5 418.5 664.5 417.5 657.5 426.5 662.5 436.5 661.5 447.5 655.5 442.5 647.5 442.5 639.5 437.5 637.5 430.5 622.5 425.5 618.5 437.5 606.5 440.5 603.5 436.5 599.5 441.5 599.5 452.5 601.5 458.5 597.5 474.5"/><polygon class="cls-1" points="576.5 286.5 558.5 286.5 552.5 307.5 564.5 336.5 570.5 336.5 570.5 376.5 580.5 384.5 570.5 384.5 570.5 393.5 557.5 395.5 570.5 400.5 570.5 415.5 568.5 419.5 576.5 421.5 580.5 428.5 591.5 441.5 599.5 441.5 603.5 436.5 606.5 441.5 617.5 437.5 622.5 425.5 637.5 430.5 639.5 437.5 647.5 441.5 655.5 441.5 661.5 447.5 661.5 436.5 657.5 426.5 664.5 417.5 705.5 417.5 703.5 391.5 682.5 391.5 660.5 406.5 661.5 415.5 654.5 424.5 641.5 413.5 635.5 413.5 637.5 406.5 643.5 405.5 657.5 407.5 648.5 377.5 641.5 377.5 642.5 370.5 646.5 370.5 637.5 324.5 625.5 321.5 625.5 313.5 637.5 313.5 636.5 303.5 582.5 303.5 579.5 305.5 576.5 286.5"/><polygon class="cls-1" points="491.5 290.5 552.5 307.5 564.5 336.5 570.5 336.5 570.5 377.5 580.5 384.5 570.5 384.5 570.5 393.5 557.5 395.5 570.5 400.5 570.5 415.5 568.5 419.5 576.5 421.5 580.5 428.5 570.5 426.5 568.5 431.5 549.5 423.5 532.5 427.5 517.5 421.5 510.5 427.5 496.5 426.5 491.5 431.5 491.5 424.5 495.5 411.5 499.5 390.5 498.5 369.5 498.5 354.5 491.5 335.5 491.5 290.5"/><polygon class="cls-1" points="371.5 414.5 365.5 410.5 368.5 403.5 371.5 389.5 377.5 377.5 371.5 371.5 371.5 360.5 377.5 360.5 377.5 284.5 491.5 284.5 491.5 335.5 498.5 354.5 498.5 390.5 492.42 421.5 491.5 431.5 486.5 431.5 480.5 424.5 457.5 427.5 455.5 421.5 451.5 429.5 448.5 423.5 429.5 429.5 412.5 424.5 396.5 431.5 389.5 431.5 387.5 427.5 382.5 431.5 373.5 424.5 371.5 414.5"/><polygon class="cls-1" points="267.5 256.5 263.5 274.5 258.5 272.5 258.5 279.5 250.5 279.5 250.5 286.5 259.5 290.5 257.5 296.5 245.5 296.5 245.5 300.5 239.5 300.5 239.5 324.5 253.5 320.5 253.5 330.5 239.5 330.5 239.5 352.5 250.5 352.5 250.5 361.5 256.5 361.5 256.5 373.5 267.5 373.5 270.5 378.5 275.5 378.5 273.5 383.5 287.5 397.5 309.5 402.5 309.5 396.5 373.5 424.5 371.5 414.5 365.5 410.5 371.5 389.5 377.5 377.5 371.5 371.5 371.5 361.5 377.5 361.5 377.5 284.5 343.5 284.5 335.5 270.5 337.5 260.5 321.5 260.5 318.5 250.5 301.5 250.5 287.5 254.5 286.5 258.5 267.5 256.5"/><polygon class="cls-1" points="449.5 105.5 413.5 135.5 396.5 131.5 403.5 158.5 388.5 162.5 379.5 159.5 369.5 167.5 363.5 161.5 344.5 156.5 336.5 179.5 338.5 189.5 332.5 199.5 321.5 194.5 295.5 197.5 285.5 205.5 283.62 258.2 286.5 258.5 287.5 254.5 301.5 250.5 318.5 250.5 321.5 260.5 337.5 260.5 335.5 270.5 343.5 284.5 491.5 284.5 493.5 206.5 498.5 176.5 470.5 135.5 453.5 122.5 449.5 105.5"/><polygon class="cls-1" points="663.5 306.5 671.5 292.5 667.5 284.5 760.5 281.5 760.5 238.5 773.5 233.5 773.5 209.5 795.5 209.5 795.5 189.5 751.5 189.5 751.5 195.5 734.5 192.5 734.5 171.5 719.5 169.5 718.5 180.5 682.5 182.5 682.5 185.5 651.5 187.5 651.5 192.5 629.5 191.5 625.5 181.5 620.5 181.5 620.5 185.5 605.5 183.5 605.5 175.5 601.5 172.5 610.5 172.5 609.5 164.5 594.5 160.5 591.5 169.5 586.5 179.5 580.5 181.5 568.5 168.5 562.5 173.5 545.5 192.5 533.5 214.5 573.5 264.5 576.5 286.5 580.5 305.5 636.5 303.5 663.5 306.5"/><polygon class="cls-1" points="449.5 105.5 452.5 99.5 467.5 110.5 559.5 114.5 561.5 111.5 561.5 119.5 570.5 120.5 570.5 117.5 570.5 112.5 581.5 112.5 581.5 125.5 590.5 127.5 592.5 132.5 586.5 133.5 586.5 144.5 580.5 145.5 580.5 157.5 586.5 157.5 586.5 163.5 583.5 163.5 583.5 168.5 572.13 172.43 568.5 168.5 563.5 163.5 558.5 167.5 543.5 151.5 514.5 183.5 529.5 201.5 541.5 191.5 545.5 192.5 533.5 214.5 573.5 264.5 576.5 286.5 558.5 286.5 552.5 306.5 491.5 290.5 493.5 206.5 498.5 176.5 470.5 135.5 453.5 122.5 449.5 105.5"/></svg>